<?xml version="1.0" standalone="no"?>
<!DOCTYPE svg PUBLIC "-//W3C//DTD SVG 20010904//EN" "http://www.w3.org/TR/2001/REC-SVG-20010904/DTD/svg10.dtd">
<!-- Created using Krita: http://krita.org -->
<svg xmlns="http://www.w3.org/2000/svg" 
    xmlns:xlink="http://www.w3.org/1999/xlink"
    xmlns:krita="http://krita.org/namespaces/svg/krita"
    xmlns:sodipodi="http://sodipodi.sourceforge.net/DTD/sodipodi-0.dtd"
    width="737.28pt"
    height="737.28pt"
    viewBox="0 0 737.28 737.28">
<defs>
  <radialGradient id="gradient0" gradientUnits="objectBoundingBox" cx="0.5" cy="0.500252965265973" fx="0.5" fy="0.500182842169644" r="1.4142135623731" spreadMethod="pad">
   <stop stop-color="#000000" offset="0.0679611638188362" stop-opacity="0"/>
   <stop stop-color="#00a13a" offset="0.359223306179047" stop-opacity="1"/>
  </radialGradient>
  <radialGradient id="gradient1" gradientUnits="objectBoundingBox" cx="0.976562778155008" cy="0.500000069538752" fx="0.976562778155008" fy="0.500000069538752" r="1.00000003973643" spreadMethod="pad">
   <stop stop-color="#000000" offset="0.412621349096298" stop-opacity="0"/>
   <stop stop-color="#ff0000" offset="0.936893224716187" stop-opacity="1"/>
  </radialGradient>
  <radialGradient id="gradient2" gradientUnits="objectBoundingBox" cx="0.976562778155008" cy="0.500000069538752" fx="0.976562778155008" fy="0.500000069538752" r="1.00000003973643" spreadMethod="pad">
   <stop stop-color="#000000" offset="0.451456308364868" stop-opacity="0"/>
   <stop stop-color="#ff0000" offset="0.859223306179047" stop-opacity="1"/>
  </radialGradient>
  <radialGradient id="gradient3" gradientUnits="objectBoundingBox" cx="0.976562778155008" cy="0.500000069538752" fx="0.976562778155008" fy="0.500000069538752" r="1.00000003973643" spreadMethod="pad">
   <stop stop-color="#000000" offset="0.412621349096298" stop-opacity="0"/>
   <stop stop-color="#ff0000" offset="0.936893224716187" stop-opacity="1"/>
  </radialGradient>
 </defs>
<path id="shape0" transform="matrix(0.999999874025408 0 0 0.999999874025408 23.0400200388005 23.0400062694362)" fill="#2d2d2d" fill-rule="evenodd" stroke="#ffffff" stroke-width="34.56" stroke-linecap="round" stroke-linejoin="round" d="M50.4 0L502.56 0L504.191 0.026L505.809 0.103L507.414 0.231L509.004 0.408L510.579 0.634L512.137 0.909L513.679 1.231L515.203 1.599L516.709 2.013L518.195 2.472L519.662 2.976L521.108 3.523L522.532 4.112L523.934 4.743L525.313 5.416L526.668 6.129L527.998 6.881L529.303 7.672L530.581 8.501L531.833 9.368L533.056 10.27L534.252 11.209L535.417 12.182L536.553 13.189L537.658 14.229L538.731 15.302L539.771 16.407L540.778 17.543L541.751 18.708L542.69 19.904L543.592 21.127L544.459 22.379L545.288 23.657L546.079 24.962L546.831 26.292L547.544 27.647L548.217 29.026L548.848 30.428L549.437 31.852L549.984 33.298L550.488 34.765L550.947 36.251L551.361 37.757L551.729 39.281L552.051 40.823L552.326 42.381L552.552 43.956L552.729 45.546L552.857 47.151L552.934 48.769L552.96 50.4L552.96 318.24L552.934 319.871L552.857 321.489L552.729 323.094L552.552 324.684L552.326 326.259L552.051 327.817L551.729 329.359L551.361 330.883L550.947 332.389L550.488 333.875L549.984 335.342L549.437 336.788L548.848 338.212L548.217 339.614L547.544 340.993L546.831 342.348L546.079 343.678L545.288 344.983L544.459 346.261L543.592 347.513L542.69 348.736L541.751 349.932L540.778 351.097L539.771 352.233L538.731 353.338L537.658 354.411L536.553 355.451L535.417 356.458L534.252 357.431L533.056 358.37L531.833 359.272L530.581 360.139L529.303 360.968L527.998 361.759L526.668 362.511L525.313 363.224L523.934 363.897L522.532 364.528L521.108 365.117L519.662 365.664L518.195 366.168L516.709 366.627L515.203 367.041L513.679 367.409L512.137 367.731L510.579 368.006L509.004 368.232L507.414 368.409L505.809 368.537L504.191 368.614L502.56 368.64L368.64 368.64L368.64 368.64L322.56 368.64L322.56 460.8L414.72 460.8L414.72 506.88L138.24 506.88L138.24 460.8L230.4 460.8L230.4 368.64L184.32 368.64L184.32 368.64L50.4 368.64L48.769 368.614L47.151 368.537L45.546 368.409L43.956 368.232L42.381 368.006L40.823 367.731L39.281 367.409L37.757 367.041L36.251 366.627L34.765 366.168L33.298 365.664L31.852 365.117L30.428 364.528L29.026 363.897L27.647 363.224L26.292 362.511L24.962 361.759L23.657 360.968L22.379 360.139L21.127 359.272L19.904 358.37L18.708 357.431L17.543 356.458L16.407 355.451L15.302 354.411L14.229 353.338L13.189 352.233L12.182 351.097L11.209 349.932L10.27 348.736L9.368 347.513L8.501 346.261L7.672 344.983L6.881 343.678L6.129 342.348L5.4159 340.993L4.7434 339.614L4.112 338.212L3.5225 336.788L2.9757 335.342L2.4723 333.875L2.0131 332.389L1.5989 330.883L1.2306 329.359L0.9088 327.817L0.6344 326.259L0.4081 324.684L0.2307 323.094L0.1031 321.489L0.0259 319.871L0 318.24L0 50.4L0.0259 48.769L0.1031 47.151L0.2307 45.546L0.4081 43.956L0.6344 42.381L0.9088 40.823L1.2306 39.281L1.5989 37.757L2.0131 36.251L2.4723 34.765L2.9757 33.298L3.5225 31.852L4.112 30.428L4.7434 29.026L5.4159 27.647L6.129 26.292L6.881 24.962L7.672 23.657L8.501 22.379L9.368 21.127L10.27 19.904L11.209 18.708L12.182 17.543L13.189 16.407L14.229 15.302L15.302 14.229L16.407 13.189L17.543 12.182L18.708 11.209L19.904 10.27L21.127 9.368L22.379 8.501L23.657 7.672L24.962 6.881L26.292 6.129L27.647 5.416L29.026 4.743L30.428 4.112L31.852 3.523L33.298 2.976L34.765 2.472L36.251 2.013L37.757 1.599L39.281 1.231L40.823 0.909L42.381 0.634L43.956 0.408L45.546 0.231L47.151 0.103L48.769 0.026L50.4 0"/><path id="shape01" transform="matrix(0.999999933420156 0 0 0.999999933420156 161.190022708379 115.200005276646)" fill="#2d2d2d" fill-rule="evenodd" stroke="#bfbfbf" stroke-width="34.56" stroke-linecap="round" stroke-linejoin="round" d="M50.4 0L502.56 0L504.191 0.026L505.809 0.103L507.414 0.231L509.004 0.408L510.579 0.634L512.137 0.909L513.679 1.231L515.203 1.599L516.709 2.013L518.195 2.472L519.662 2.976L521.108 3.523L522.532 4.112L523.934 4.743L525.313 5.416L526.668 6.129L527.998 6.881L529.303 7.672L530.581 8.501L531.833 9.368L533.056 10.27L534.252 11.209L535.417 12.182L536.553 13.189L537.658 14.229L538.731 15.302L539.771 16.407L540.778 17.543L541.751 18.708L542.69 19.904L543.592 21.127L544.459 22.379L545.288 23.657L546.079 24.962L546.831 26.292L547.544 27.647L548.217 29.026L548.848 30.428L549.437 31.852L549.984 33.298L550.488 34.765L550.947 36.251L551.361 37.757L551.729 39.281L552.051 40.823L552.326 42.381L552.552 43.956L552.729 45.546L552.857 47.151L552.934 48.769L552.96 50.4L552.96 318.24L552.934 319.871L552.857 321.489L552.729 323.094L552.552 324.684L552.326 326.259L552.051 327.817L551.729 329.359L551.361 330.883L550.947 332.389L550.488 333.875L549.984 335.342L549.437 336.788L548.848 338.212L548.217 339.614L547.544 340.993L546.831 342.348L546.079 343.678L545.288 344.983L544.459 346.261L543.592 347.513L542.69 348.736L541.751 349.932L540.778 351.097L539.771 352.233L538.731 353.338L537.658 354.411L536.553 355.451L535.417 356.458L534.252 357.431L533.056 358.37L531.833 359.272L530.581 360.139L529.303 360.968L527.998 361.759L526.668 362.511L525.313 363.224L523.934 363.897L522.532 364.528L521.108 365.117L519.662 365.664L518.195 366.168L516.709 366.627L515.203 367.041L513.679 367.409L512.137 367.731L510.579 368.006L509.004 368.232L507.414 368.409L505.809 368.537L504.191 368.614L502.56 368.64L368.64 368.64L368.64 368.64L322.56 368.64L322.56 460.8L414.72 460.8L414.72 506.88L138.24 506.88L138.24 460.8L230.4 460.8L230.4 368.64L184.32 368.64L184.32 368.64L50.4 368.64L48.769 368.614L47.151 368.537L45.546 368.409L43.956 368.232L42.381 368.006L40.823 367.731L39.281 367.409L37.757 367.041L36.251 366.627L34.765 366.168L33.298 365.664L31.852 365.117L30.428 364.528L29.026 363.897L27.647 363.224L26.292 362.511L24.962 361.759L23.657 360.968L22.379 360.139L21.127 359.272L19.904 358.37L18.708 357.431L17.543 356.458L16.407 355.451L15.302 354.411L14.229 353.338L13.189 352.233L12.182 351.097L11.209 349.932L10.27 348.736L9.368 347.513L8.501 346.261L7.672 344.983L6.881 343.678L6.129 342.348L5.4159 340.993L4.7434 339.614L4.112 338.212L3.5225 336.788L2.9757 335.342L2.4723 333.875L2.0131 332.389L1.5989 330.883L1.2306 329.359L0.9088 327.817L0.6344 326.259L0.4081 324.684L0.2307 323.094L0.1031 321.489L0.0259 319.871L0 318.24L0 50.4L0.0259 48.769L0.1031 47.151L0.2307 45.546L0.4081 43.956L0.6344 42.381L0.9088 40.823L1.2306 39.281L1.5989 37.757L2.0131 36.251L2.4723 34.765L2.9757 33.298L3.5225 31.852L4.112 30.428L4.7434 29.026L5.4159 27.647L6.129 26.292L6.881 24.962L7.672 23.657L8.501 22.379L9.368 21.127L10.27 19.904L11.209 18.708L12.182 17.543L13.189 16.407L14.229 15.302L15.302 14.229L16.407 13.189L17.543 12.182L18.708 11.209L19.904 10.27L21.127 9.368L22.379 8.501L23.657 7.672L24.962 6.881L26.292 6.129L27.647 5.416L29.026 4.743L30.428 4.112L31.852 3.523L33.298 2.976L34.765 2.472L36.251 2.013L37.757 1.599L39.281 1.231L40.823 0.909L42.381 0.634L43.956 0.408L45.546 0.231L47.151 0.103L48.769 0.026L50.4 0"/><path id="shape02" transform="matrix(1.00000484076821 0 0 0.99999993356403 92.160009800267 207.359993548056)" fill="#2d2d2d" fill-rule="evenodd" stroke="#ffffff" stroke-width="34.56" stroke-linecap="round" stroke-linejoin="round" d="M50.4 0L502.56 0L504.191 0.026L505.809 0.103L507.414 0.231L509.004 0.408L510.579 0.634L512.137 0.909L513.679 1.231L515.203 1.599L516.709 2.013L518.195 2.472L519.662 2.976L521.108 3.523L522.532 4.112L523.934 4.743L525.313 5.416L526.668 6.129L527.998 6.881L529.303 7.672L530.581 8.501L531.833 9.368L533.056 10.27L534.252 11.209L535.417 12.182L536.553 13.189L537.658 14.229L538.731 15.302L539.771 16.407L540.778 17.543L541.751 18.708L542.69 19.904L543.592 21.127L544.459 22.379L545.288 23.657L546.079 24.962L546.831 26.292L547.544 27.647L548.217 29.026L548.848 30.428L549.437 31.852L549.984 33.298L550.488 34.765L550.947 36.251L551.361 37.757L551.729 39.281L552.051 40.823L552.326 42.381L552.552 43.956L552.729 45.546L552.857 47.151L552.934 48.769L552.96 50.4L552.96 318.24L552.934 319.871L552.857 321.489L552.729 323.094L552.552 324.684L552.326 326.259L552.051 327.817L551.729 329.359L551.361 330.883L550.947 332.389L550.488 333.875L549.984 335.342L549.437 336.788L548.848 338.212L548.217 339.614L547.544 340.993L546.831 342.348L546.079 343.678L545.288 344.983L544.459 346.261L543.592 347.513L542.69 348.736L541.751 349.932L540.778 351.097L539.771 352.233L538.731 353.338L537.658 354.411L536.553 355.451L535.417 356.458L534.252 357.431L533.056 358.37L531.833 359.272L530.581 360.139L529.303 360.968L527.998 361.759L526.668 362.511L525.313 363.224L523.934 363.897L522.532 364.528L521.108 365.117L519.662 365.664L518.195 366.168L516.709 366.627L515.203 367.041L513.679 367.409L512.137 367.731L510.579 368.006L509.004 368.232L507.414 368.409L505.809 368.537L504.191 368.614L502.56 368.64L368.64 368.64L368.64 368.64L322.56 368.64L322.56 460.8L414.72 460.8L414.72 506.88L138.24 506.88L138.24 460.8L230.4 460.8L230.4 368.64L184.32 368.64L184.32 368.64L50.4 368.64L48.769 368.614L47.151 368.537L45.546 368.409L43.956 368.232L42.381 368.006L40.823 367.731L39.281 367.409L37.757 367.041L36.251 366.627L34.765 366.168L33.298 365.664L31.852 365.117L30.428 364.528L29.026 363.897L27.647 363.224L26.292 362.511L24.962 361.759L23.657 360.968L22.379 360.139L21.127 359.272L19.904 358.37L18.708 357.431L17.543 356.458L16.407 355.451L15.302 354.411L14.229 353.338L13.189 352.233L12.182 351.097L11.209 349.932L10.27 348.736L9.368 347.513L8.501 346.261L7.672 344.983L6.881 343.678L6.129 342.348L5.4159 340.993L4.7434 339.614L4.112 338.212L3.5225 336.788L2.9757 335.342L2.4723 333.875L2.0131 332.389L1.5989 330.883L1.2306 329.359L0.9088 327.817L0.6344 326.259L0.4081 324.684L0.2307 323.094L0.1031 321.489L0.0259 319.871L0 318.24L0 50.4L0.0259 48.769L0.1031 47.151L0.2307 45.546L0.4081 43.956L0.6344 42.381L0.9088 40.823L1.2306 39.281L1.5989 37.757L2.0131 36.251L2.4723 34.765L2.9757 33.298L3.5225 31.852L4.112 30.428L4.7434 29.026L5.4159 27.647L6.129 26.292L6.881 24.962L7.672 23.657L8.501 22.379L9.368 21.127L10.27 19.904L11.209 18.708L12.182 17.543L13.189 16.407L14.229 15.302L15.302 14.229L16.407 13.189L17.543 12.182L18.708 11.209L19.904 10.27L21.127 9.368L22.379 8.501L23.657 7.672L24.962 6.881L26.292 6.129L27.647 5.416L29.026 4.743L30.428 4.112L31.852 3.523L33.298 2.976L34.765 2.472L36.251 2.013L37.757 1.599L39.281 1.231L40.823 0.909L42.381 0.634L43.956 0.408L45.546 0.231L47.151 0.103L48.769 0.026L50.4 0"/><circle id="shape03" transform="matrix(1.00000484517997 0 0 0.999999937975768 259.200006323461 282.239990619585)" r="109.440006523133" cx="109.440006523133" cy="109.440006523133" fill="url(#gradient0)" fill-rule="evenodd" stroke="#000000" stroke-opacity="0" stroke-width="0" stroke-linecap="square" stroke-linejoin="bevel"/><path id="shape3" transform="matrix(1.00000484517997 0 0 0.999999937975768 535.680001076855 236.159990731079)" fill="url(#gradient1)" fill-rule="evenodd" stroke="#000000" stroke-opacity="0" stroke-width="0" stroke-linecap="square" stroke-linejoin="bevel" d="M109.44 0L106.571 0.0524159L103.719 0.20881L100.887 0.467902L98.0753 0.828411L95.2841 1.28906L92.5147 1.84856L89.768 2.50563L87.0449 3.259L84.3465 4.10739L81.6733 5.04951L79.0265 6.0841L76.4068 7.20983L73.8154 8.42547L71.2529 9.72972L68.7203 11.1213L66.2186 12.5989L63.7484 14.1613L61.3111 15.8072L58.9071 17.5353L56.5377 19.3443L54.2036 21.233L51.9056 23.2001L49.6449 25.2442L47.422 27.3642L45.2382 29.5586L43.0941 31.8263L40.9908 34.166L38.9292 36.5764L36.9101 39.0562L34.9344 41.604L33.003 44.2187L31.1169 46.899L29.2769 49.6436L27.484 52.4512L25.7389 55.3205L24.0427 58.2501L22.3963 61.239L20.8005 64.2858L19.2563 67.3891L17.7644 70.548L16.326 73.7606L14.9417 77.0261L13.6127 80.3431L12.3397 83.7101L11.1236 87.1263L9.96539 90.5899L8.86592 94.1001L7.8261 97.6551L6.84684 101.254L5.92903 104.896L5.07358 108.578L4.2814 112.301L3.55336 116.062L2.89039 119.861L2.29337 123.695L1.76322 127.565L1.30084 131.468L0.907113 135.404L0.582956 139.37L0.329264 143.366L0.14694 147.391L0.0368853 151.443L0 155.52L0.0368853 159.598L0.14694 163.649L0.329264 167.674L0.582956 171.669L0.907113 175.637L1.30084 179.572L1.76322 183.475L2.29337 187.345L2.89039 191.179L3.55336 194.979L4.2814 198.739L5.07358 202.461L5.92903 206.145L6.84684 209.787L7.8261 213.384L8.86592 216.94L9.96539 220.45L11.1236 223.914L12.3397 227.33L13.6127 230.696L14.9417 234.014L16.326 237.279L17.7644 240.492L19.2563 243.651L20.8005 246.755L22.3963 249.801L24.0427 252.789L25.7389 255.72L27.484 258.589L29.2769 261.397L31.1169 264.141L33.003 266.821L34.9344 269.436L36.9101 271.985L38.9292 274.463L40.9908 276.873L43.0941 279.214L45.2382 281.482L47.422 283.676L49.6449 285.795L51.9056 287.84L54.2036 289.806L56.5377 291.696L58.9071 293.505L61.3111 295.233L63.7484 296.879L66.2186 298.441L68.7203 299.919L71.2529 301.31L73.8154 302.614L76.4068 303.831L79.0265 304.957L81.6733 305.991L84.3465 306.933L87.0449 307.781L89.768 308.534L92.5147 309.192L95.2841 309.751L98.0753 310.211L100.887 310.573L103.719 310.831L106.571 310.988L109.44 311.04L109.44 0"/><path id="shape31" transform="matrix(0 -1.00000481311394 0.999999905909889 0 213.120014632894 270.748673002066)" fill="url(#gradient2)" fill-rule="evenodd" stroke="#000000" stroke-opacity="0" stroke-width="0" stroke-linecap="square" stroke-linejoin="bevel" d="M63.36 0L61.6988 0.052416L60.0481 0.20881L58.4085 0.467902L56.7804 0.828411L55.1645 1.28906L53.5611 1.84856L51.971 2.50563L50.3944 3.259L48.8322 4.1074L47.2845 5.04951L45.7522 6.0841L44.2355 7.20983L42.7352 8.42547L41.2517 9.72972L39.7854 11.1213L38.3371 12.599L36.907 14.1614L35.4959 15.8073L34.1041 17.5354L32.7324 19.3444L31.381 21.233L30.0506 23.2001L28.7418 25.2442L27.4548 27.3642L26.1905 29.5586L24.9492 31.8263L23.7315 34.166L22.538 36.5765L21.369 39.0562L20.2252 41.604L19.107 44.2188L18.015 46.899L16.9498 49.6436L15.9118 52.4512L14.9015 55.3205L13.9195 58.2501L12.9663 61.239L12.0424 64.2859L11.1484 67.3892L10.2847 70.548L9.45189 73.7606L8.65047 77.0262L7.88102 80.3431L7.14402 83.7101L6.43999 87.1263L5.76944 90.59L5.1329 94.1001L4.5309 97.6552L3.96396 101.254L3.4326 104.896L2.93734 108.578L2.47871 112.301L2.05721 116.062L1.67338 119.861L1.32774 123.696L1.02081 127.565L0.753115 131.469L0.525171 135.404L0.337501 139.371L0.190627 143.367L0.0850706 147.391L0.0213546 151.443L0 155.52L0.0213546 159.597L0.0850706 163.649L0.190627 167.673L0.337501 171.669L0.525171 175.637L0.753115 179.573L1.02081 183.475L1.32774 187.345L1.67338 191.179L2.05721 194.979L2.47871 198.739L2.93734 202.462L3.4326 206.145L3.96396 209.787L4.5309 213.384L5.1329 216.941L5.76944 220.451L6.43999 223.914L7.14402 227.33L7.88102 230.697L8.65047 234.015L9.45189 237.279L10.2847 240.492L11.1484 243.651L12.0424 246.755L12.9663 249.801L13.9195 252.79L14.9015 255.72L15.9118 258.589L16.9498 261.397L18.015 264.141L19.107 266.821L20.2252 269.436L21.369 271.985L22.538 274.464L23.7315 276.874L24.9492 279.214L26.1905 281.482L27.4548 283.676L28.7418 285.795L30.0506 287.84L31.381 289.807L32.7324 291.697L34.1041 293.506L35.4959 295.234L36.907 296.879L38.3371 298.441L39.7854 299.919L41.2517 301.31L42.7352 302.615L44.2355 303.831L45.7522 304.957L47.2845 305.991L48.8322 306.933L50.3944 307.782L51.971 308.535L53.5611 309.193L55.1645 309.751L56.7804 310.212L58.4085 310.573L60.0481 310.831L61.6988 310.988L63.36 311.04L63.36 0"/><path id="shape32" transform="matrix(-1.00000485274299 0 0 -0.999999945538749 201.643686870341 547.199991530186)" fill="url(#gradient3)" fill-rule="evenodd" stroke="#000000" stroke-opacity="0" stroke-width="0" stroke-linecap="square" stroke-linejoin="bevel" d="M109.44 0L106.571 0.052416L103.719 0.20881L100.887 0.467902L98.0753 0.828411L95.2841 1.28906L92.5147 1.84856L89.768 2.50563L87.0449 3.259L84.3465 4.1074L81.6733 5.04951L79.0265 6.0841L76.4068 7.20983L73.8154 8.42547L71.2529 9.72972L68.7203 11.1213L66.2186 12.599L63.7484 14.1614L61.3111 15.8073L58.9071 17.5354L56.5377 19.3444L54.2036 21.233L51.9056 23.2001L49.6449 25.2442L47.422 27.3642L45.2382 29.5586L43.0941 31.8263L40.9908 34.166L38.9292 36.5765L36.9101 39.0562L34.9344 41.604L33.003 44.2188L31.1169 46.899L29.2769 49.6436L27.484 52.4512L25.7389 55.3205L24.0427 58.2501L22.3963 61.239L20.8005 64.2859L19.2563 67.3892L17.7644 70.548L16.326 73.7606L14.9417 77.0262L13.6127 80.3431L12.3397 83.7101L11.1236 87.1263L9.96539 90.59L8.86592 94.1001L7.8261 97.6552L6.84684 101.254L5.92903 104.896L5.07358 108.578L4.2814 112.301L3.55336 116.062L2.89039 119.861L2.29337 123.696L1.76322 127.565L1.30084 131.469L0.907113 135.404L0.582956 139.371L0.329264 143.367L0.14694 147.391L0.0368853 151.443L0 155.52L0.0368853 159.597L0.14694 163.649L0.329264 167.673L0.582956 171.669L0.907113 175.637L1.30084 179.573L1.76322 183.475L2.29337 187.345L2.89039 191.179L3.55336 194.979L4.2814 198.739L5.07358 202.462L5.92903 206.145L6.84684 209.787L7.8261 213.384L8.86592 216.941L9.96539 220.451L11.1236 223.914L12.3397 227.33L13.6127 230.697L14.9417 234.015L16.326 237.279L17.7644 240.492L19.2563 243.651L20.8005 246.755L22.3963 249.801L24.0427 252.79L25.7389 255.72L27.484 258.589L29.2769 261.397L31.1169 264.141L33.003 266.821L34.9344 269.436L36.9101 271.985L38.9292 274.464L40.9908 276.874L43.0941 279.214L45.2382 281.482L47.422 283.676L49.6449 285.795L51.9056 287.84L54.2036 289.807L56.5377 291.697L58.9071 293.506L61.3111 295.234L63.7484 296.879L66.2186 298.441L68.7203 299.919L71.2529 301.31L73.8154 302.615L76.4068 303.831L79.0265 304.957L81.6733 305.991L84.3465 306.933L87.0449 307.782L89.768 308.535L92.5147 309.193L95.2841 309.751L98.0753 310.212L100.887 310.573L103.719 310.831L106.571 310.988L109.44 311.04L109.44 0"/><path id="shape04" transform="matrix(1.00000484886773 0 0 0.999999941663511 92.1600111030965 207.360000051016)" fill="none" stroke="#ffffff" stroke-width="34.56" stroke-linecap="square" stroke-linejoin="bevel" d="M50.4 0L502.56 0L504.191 0.025896L505.809 0.103062L507.414 0.230717L509.004 0.408078L510.579 0.634362L512.137 0.908787L513.679 1.23057L515.203 1.59893L516.709 2.01309L518.195 2.47226L519.662 2.97566L521.108 3.5225L522.532 4.11202L523.934 4.74341L525.313 5.41591L526.668 6.12873L527.998 6.88108L529.303 7.67218L530.581 8.50126L531.833 9.36753L533.056 10.2702L534.252 11.2085L535.417 12.1817L536.553 13.1889L537.658 14.2293L538.731 15.3023L539.771 16.407L540.778 17.5426L541.751 18.7084L542.69 19.9036L543.592 21.1273L544.459 22.3788L545.288 23.6574L546.079 24.9622L546.831 26.2924L547.544 27.6473L548.217 29.0261L548.848 30.428L549.437 31.8523L549.984 33.2981L550.488 34.7646L550.947 36.2512L551.361 37.7569L551.729 39.281L552.051 40.8228L552.326 42.3815L552.552 43.9562L552.729 45.5461L552.857 47.1506L552.934 48.7688L552.96 50.4L552.96 318.24L552.934 319.871L552.857 321.489L552.729 323.094L552.552 324.684L552.326 326.259L552.051 327.817L551.729 329.359L551.361 330.883L550.947 332.389L550.488 333.875L549.984 335.342L549.437 336.788L548.848 338.212L548.217 339.614L547.544 340.993L546.831 342.348L546.079 343.678L545.288 344.983L544.459 346.261L543.592 347.513L542.69 348.736L541.751 349.932L540.778 351.097L539.771 352.233L538.731 353.338L537.658 354.411L536.553 355.451L535.417 356.458L534.252 357.431L533.056 358.37L531.833 359.272L530.581 360.139L529.303 360.968L527.998 361.759L526.668 362.511L525.313 363.224L523.934 363.897L522.532 364.528L521.108 365.117L519.662 365.664L518.195 366.168L516.709 366.627L515.203 367.041L513.679 367.409L512.137 367.731L510.579 368.006L509.004 368.232L507.414 368.409L505.809 368.537L504.191 368.614L502.56 368.64L368.452 368.64L368.409 368.106L368.232 366.516L368.006 364.941L367.731 363.383L367.409 361.841L367.041 360.317L366.627 358.811L366.168 357.325L365.664 355.858L365.117 354.412L364.528 352.988L363.897 351.586L363.224 350.207L362.511 348.852L361.759 347.522L360.968 346.217L360.139 344.939L359.272 343.687L358.37 342.464L357.431 341.268L356.458 340.103L355.451 338.967L354.411 337.862L353.338 336.789L352.233 335.749L351.097 334.742L349.932 333.769L348.736 332.83L347.513 331.928L346.261 331.061L344.983 330.232L343.678 329.441L342.348 328.689L340.993 327.976L339.614 327.303L338.212 326.672L336.788 326.083L335.342 325.536L333.875 325.032L332.389 324.573L330.883 324.159L329.359 323.791L327.817 323.469L326.259 323.194L324.684 322.968L323.094 322.791L321.489 322.663L319.871 322.586L318.24 322.56L234.72 322.56L233.089 322.586L231.471 322.663L229.866 322.791L228.276 322.968L226.701 323.194L225.143 323.469L223.601 323.791L222.077 324.159L220.571 324.573L219.085 325.032L217.618 325.536L216.172 326.083L214.748 326.672L213.346 327.303L211.967 327.976L210.612 328.689L209.282 329.441L207.977 330.232L206.699 331.061L205.447 331.928L204.224 332.83L203.028 333.769L201.863 334.742L200.727 335.749L199.622 336.789L198.549 337.862L197.509 338.967L196.502 340.103L195.529 341.268L194.59 342.464L193.688 343.687L192.821 344.939L191.992 346.217L191.201 347.522L190.449 348.852L189.736 350.207L189.063 351.586L188.432 352.988L187.843 354.412L187.296 355.858L186.792 357.325L186.333 358.811L185.919 360.317L185.551 361.841L185.229 363.383L184.954 364.941L184.728 366.516L184.551 368.106L184.508 368.64L50.4 368.64L48.7688 368.614L47.1506 368.537L45.5461 368.409L43.9562 368.232L42.3815 368.006L40.8228 367.731L39.281 367.409L37.7569 367.041L36.2512 366.627L34.7646 366.168L33.2981 365.664L31.8523 365.117L30.428 364.528L29.0261 363.897L27.6473 363.224L26.2924 362.511L24.9622 361.759L23.6574 360.968L22.3788 360.139L21.1273 359.272L19.9036 358.37L18.7084 357.431L17.5426 356.458L16.407 355.451L15.3023 354.411L14.2293 353.338L13.1889 352.233L12.1817 351.097L11.2085 349.932L10.2702 348.736L9.36753 347.513L8.50126 346.261L7.67218 344.983L6.88108 343.678L6.12873 342.348L5.41591 340.993L4.74341 339.614L4.11202 338.212L3.5225 336.788L2.97566 335.342L2.47226 333.875L2.01309 332.389L1.59893 330.883L1.23057 329.359L0.908787 327.817L0.634362 326.259L0.408078 324.684L0.230717 323.094L0.103062 321.489L0.025896 319.871L0 318.24L0 50.4L0.025896 48.7688L0.103062 47.1506L0.230717 45.5461L0.408078 43.9562L0.634362 42.3815L0.908787 40.8228L1.23057 39.281L1.59893 37.7569L2.01309 36.2512L2.47226 34.7646L2.97566 33.2981L3.5225 31.8523L4.11202 30.428L4.74341 29.0261L5.41591 27.6473L6.12873 26.2924L6.88108 24.9622L7.67218 23.6574L8.50126 22.3788L9.36753 21.1273L10.2702 19.9036L11.2085 18.7084L12.1817 17.5426L13.1889 16.407L14.2293 15.3023L15.3023 14.2293L16.407 13.1889L17.5426 12.1817L18.7084 11.2085L19.9036 10.2702L21.1273 9.36753L22.3788 8.50126L23.6574 7.67218L24.9622 6.88108L26.2924 6.12873L27.6473 5.41591L29.0261 4.74341L30.428 4.11202L31.8523 3.5225L33.2981 2.97566L34.7646 2.47226L36.2512 2.01309L37.7569 1.59893L39.281 1.23057L40.8228 0.908787L42.3815 0.634362L43.9562 0.408078L45.5461 0.230717L47.1506 0.103062L48.7688 0.025896L50.4 0"/><path id="shape01" transform="matrix(1.00000487503676 0 0 0.999999967832415 232.436485277326 529.920003095355)" fill="none" stroke="#2d2d2d" stroke-width="57.6" stroke-linecap="square" stroke-linejoin="miter" stroke-miterlimit="2" d="M0 0L276.48 0"/><path id="shape05" transform="matrix(1.00000482889741 0 0 0.999999921693287 460.821500287937 253.445375641368)" fill="#2d2d2d" fill-rule="evenodd" stroke="#ffffff" stroke-width="34.56" stroke-linecap="round" stroke-linejoin="round" d="M0 0L0 138.24L30.87 138.24L48.15 181.35L91.035 164.07L73.845 121.343L97.5488 97.56Z"/>
</svg>
