<?xml version="1.0" standalone="no"?>
<!DOCTYPE svg PUBLIC "-//W3C//DTD SVG 20010904//EN" "http://www.w3.org/TR/2001/REC-SVG-20010904/DTD/svg10.dtd">
<!-- Created using Krita: http://krita.org -->
<svg xmlns="http://www.w3.org/2000/svg" 
    xmlns:xlink="http://www.w3.org/1999/xlink"
    xmlns:krita="http://krita.org/namespaces/svg/krita"
    xmlns:sodipodi="http://sodipodi.sourceforge.net/DTD/sodipodi-0.dtd"
    width="737.28pt"
    height="737.28pt"
    viewBox="0 0 737.28 737.28">
<defs/>
<path id="shape0" transform="matrix(0.999999973453851 0 0 0.999999973453851 161.279999689738 69.1199981651305)" fill="#000000" fill-rule="evenodd" stroke="#ffffff" stroke-width="23.04" stroke-linecap="square" stroke-linejoin="round" d="M0 0L1.42109e-14 368.64L552.96 368.64L552.96 2.84217e-14Z"/><path id="shape1" transform="matrix(0.999999973453851 0 0 0.999999973453851 299.519996019999 437.75998837916)" fill="#000000" fill-rule="evenodd" stroke="#ffffff" stroke-width="23.04" stroke-linecap="square" stroke-linejoin="round" d="M92.16 0L92.16 92.16L0 92.16L0 138.24L276.48 138.24L276.48 92.16L184.32 92.16L184.32 0Z"/><path id="shape01" transform="matrix(0.999999975732951 0 0 0.999999975732951 92.1599989953894 139.679996602577)" fill="#000000" fill-rule="evenodd" stroke="#ffffff" stroke-width="23.04" stroke-linecap="square" stroke-linejoin="round" d="M0 0L1.42109e-14 368.64L552.96 368.64L552.96 2.84217e-14Z"/><path id="shape11" transform="matrix(0.999999975732951 0 0 0.999999975732951 230.399995640712 508.319987656772)" fill="#000000" fill-rule="evenodd" stroke="#ffffff" stroke-width="23.04" stroke-linecap="square" stroke-linejoin="round" d="M92.16 0L92.16 92.16L0 92.16L0 138.24L276.48 138.24L276.48 92.16L184.32 92.16L184.32 0Z"/><path id="shape02" transform="matrix(0.999999973453851 0 0 0.999999973453851 23.0399993883769 207.359998466491)" fill="#000000" fill-rule="evenodd" stroke="#ffffff" stroke-width="23.04" stroke-linecap="square" stroke-linejoin="round" d="M0 0L1.42109e-14 368.64L552.96 368.64L552.96 2.84217e-14Z"/><path id="shape12" transform="matrix(0.999999973453851 0 0 0.999999973453851 161.279995718638 575.999988680521)" fill="#000000" fill-rule="evenodd" stroke="#ffffff" stroke-width="23.04" stroke-linecap="square" stroke-linejoin="round" d="M92.16 0L92.16 92.16L0 92.16L0 138.24L276.48 138.24L276.48 92.16L184.32 92.16L184.32 0Z"/><path id="shape03" transform="matrix(0.999999973453851 0 0 0.999999973453851 23.0399993883769 253.440002120971)" fill="none" stroke="#ff0000" stroke-width="23.04" stroke-linecap="square" stroke-linejoin="round" d="M0 0L0 276.48L3.0204 276.433L6.0217 276.294L9.0028 276.064L11.9629 275.744L14.901 275.334L17.8161 274.837L20.7073 274.253L23.5737 273.583L26.4143 272.829L29.2281 271.992L32.0143 271.072L34.7718 270.071L37.4997 268.991L40.197 267.831L42.8629 266.594L45.4963 265.281L48.0963 263.892L50.662 262.429L53.1925 260.893L55.6866 259.285L58.1436 257.606L60.5625 255.858L62.9423 254.041L65.2821 252.156L67.5809 250.206L69.8377 248.19L72.0517 246.11L74.2219 243.968L76.3473 241.763L78.427 239.499L80.46 237.174L82.445 234.792L84.382 232.352L86.27 229.857L88.106 227.306L89.892 224.702L91.625 222.045L93.305 219.337L94.93 216.578L96.501 213.771L98.015 210.915L99.472 208.012L100.871 205.064L102.211 202.071L103.491 199.034L104.71 195.956L105.867 192.836L106.962 189.675L107.993 186.476L108.959 183.24L109.859 179.966L110.693 176.657L111.46 173.314L112.157 169.937L112.786 166.528L113.344 163.089L113.831 159.619L114.245 156.121L114.586 152.595L114.853 149.043L115.045 145.466L115.161 141.864L115.2 138.24L115.161 134.616L115.045 131.014L114.853 127.437L114.586 123.885L114.245 120.359L113.831 116.861L113.344 113.391L112.786 109.952L112.157 106.543L111.46 103.166L110.693 99.823L109.859 96.514L108.959 93.24L107.993 90.004L106.962 86.805L105.867 83.644L104.71 80.524L103.491 77.446L102.211 74.409L100.871 71.416L99.472 68.468L98.015 65.565L96.501 62.709L94.93 59.902L93.305 57.143L91.625 54.435L89.892 51.778L88.106 49.174L86.27 46.623L84.382 44.128L82.445 41.688L80.46 39.306L78.427 36.981L76.3473 34.717L74.2219 32.512L72.0517 30.37L69.8377 28.29L67.5809 26.274L65.2821 24.324L62.9423 22.439L60.5625 20.622L58.1436 18.874L55.6866 17.195L53.1925 15.587L50.662 14.051L48.0963 12.588L45.4963 11.199L42.8629 9.886L40.197 8.649L37.4997 7.489L34.7718 6.409L32.0143 5.408L29.2281 4.488L26.4143 3.651L23.5737 2.897L20.7073 2.227L17.8161 1.643L14.901 1.146L11.9629 0.736L9.0028 0.416L6.0217 0.186L3.0204 0.047L0 0"/><path id="shape13" transform="matrix(0.999999973453851 0 0 0.999999973453851 115.199996941884 207.360003344218)" fill="none" stroke="#ff0000" stroke-width="23.04" stroke-linecap="square" stroke-linejoin="round" d="M368.64 0L0 0L0.062 1.208L0.247 2.409L0.555 3.601L0.982 4.785L1.528 5.96L2.191 7.126L2.97 8.283L3.863 9.429L4.868 10.566L5.985 11.691L7.211 12.806L8.545 13.909L9.986 15L11.532 16.079L13.181 17.145L14.932 18.199L16.784 19.239L18.734 20.265L20.783 21.277L22.927 22.275L25.165 23.257L27.496 24.225L29.919 25.177L32.432 26.113L35.032 27.032L37.72 27.935L40.493 28.821L43.35 29.689L46.289 30.539L49.308 31.371L52.407 32.184L55.584 32.978L58.837 33.753L62.164 34.508L65.565 35.243L69.037 35.957L72.58 36.65L76.191 37.322L79.869 37.972L83.612 38.6L87.42 39.206L91.29 39.789L95.221 40.348L99.212 40.884L103.261 41.396L107.366 41.884L111.526 42.347L115.739 42.785L120.005 43.197L124.321 43.584L128.685 43.944L133.097 44.277L137.555 44.584L142.057 44.863L146.602 45.114L151.188 45.338L155.814 45.532L160.478 45.698L165.179 45.835L169.916 45.941L174.685 46.018L179.487 46.064L184.32 46.08L189.153 46.064L193.955 46.018L198.724 45.941L203.461 45.835L208.162 45.698L212.826 45.532L217.452 45.338L222.038 45.114L226.583 44.863L231.085 44.584L235.543 44.277L239.955 43.944L244.319 43.584L248.635 43.197L252.901 42.785L257.114 42.347L261.274 41.884L265.379 41.396L269.428 40.884L273.419 40.348L277.35 39.789L281.22 39.206L285.028 38.6L288.771 37.972L292.449 37.322L296.06 36.65L299.603 35.957L303.075 35.243L306.476 34.508L309.803 33.753L313.056 32.978L316.233 32.184L319.332 31.371L322.351 30.539L325.29 29.689L328.147 28.821L330.92 27.935L333.608 27.032L336.208 26.113L338.721 25.177L341.144 24.225L343.475 23.257L345.713 22.275L347.857 21.277L349.906 20.265L351.856 19.239L353.708 18.199L355.459 17.145L357.108 16.079L358.654 15L360.095 13.909L361.429 12.806L362.655 11.691L363.772 10.566L364.777 9.429L365.67 8.283L366.449 7.126L367.112 5.96L367.658 4.785L368.085 3.601L368.393 2.409L368.578 1.208L368.64 0"/><path id="shape2" transform="matrix(0.999999973453851 0 0 0.999999973453851 460.799987767537 253.440002120971)" fill="none" stroke="#ff0000" stroke-width="23.04" stroke-linecap="square" stroke-linejoin="round" d="M115.2 276.48L115.2 0L115.2 0L112.18 0.047L109.178 0.186L106.197 0.416L103.237 0.736L100.299 1.146L97.384 1.643L94.493 2.227L91.626 2.897L88.786 3.651L85.972 4.488L83.186 5.408L80.428 6.409L77.7 7.489L75.003 8.649L72.337 9.886L69.704 11.199L67.104 12.588L64.538 14.051L62.008 15.587L59.513 17.195L57.056 18.874L54.637 20.622L52.258 22.439L49.918 24.324L47.619 26.274L45.362 28.29L43.148 30.37L40.978 32.512L38.853 34.717L36.773 36.981L34.74 39.306L32.755 41.688L30.818 44.128L28.93 46.623L27.094 49.174L25.308 51.778L23.575 54.435L21.895 57.143L20.27 59.902L18.699 62.709L17.185 65.565L15.728 68.468L14.329 71.416L12.989 74.409L11.709 77.446L10.49 80.524L9.333 83.644L8.238 86.805L7.207 90.004L6.241 93.24L5.341 96.514L4.507 99.823L3.74 103.166L3.043 106.543L2.414 109.952L1.856 113.391L1.369 116.861L0.955 120.359L0.614 123.885L0.347 127.437L0.155 131.014L0.039 134.616L0 138.24L0.039 141.864L0.155 145.466L0.347 149.043L0.614 152.595L0.955 156.121L1.369 159.619L1.856 163.089L2.414 166.528L3.043 169.937L3.74 173.314L4.507 176.657L5.341 179.966L6.241 183.24L7.207 186.476L8.238 189.675L9.333 192.836L10.49 195.956L11.709 199.034L12.989 202.071L14.329 205.064L15.728 208.012L17.185 210.915L18.699 213.771L20.27 216.578L21.895 219.337L23.575 222.045L25.308 224.702L27.094 227.306L28.93 229.857L30.818 232.352L32.755 234.792L34.74 237.174L36.773 239.499L38.853 241.763L40.978 243.968L43.148 246.11L45.362 248.19L47.619 250.206L49.918 252.156L52.258 254.041L54.637 255.858L57.056 257.606L59.513 259.285L62.008 260.893L64.538 262.429L67.104 263.892L69.704 265.281L72.337 266.594L75.003 267.831L77.7 268.991L80.428 270.071L83.186 271.072L85.972 271.992L88.786 272.829L91.626 273.583L94.493 274.253L97.384 274.837L100.299 275.334L103.237 275.744L106.197 276.064L109.178 276.294L112.18 276.433L115.2 276.48L115.2 276.48"/><path id="shape04" transform="matrix(0.999999935388551 0 0 0.999999935388551 230.399985113522 253.440001733836)" fill="#00b4ff" fill-rule="evenodd" stroke="#00b4ff" stroke-width="23.04" stroke-linecap="square" stroke-linejoin="bevel" d="M0 0L322.56 322.56L111.611 322.571L0 210.96Z"/><path id="shape05" transform="matrix(0.999999986644141 0 0 0.999999986644141 23.0399917907744 207.359986897788)" fill="none" stroke="#ffffff" stroke-width="23.04" stroke-linecap="square" stroke-linejoin="round" d="M0 0L1.42109e-14 368.64C184.32 368.64 368.64 368.64 552.96 368.64L552.96 2.84217e-14Z"/><path id="shape06" transform="matrix(1.00000473853985 0 0 0.999999831336164 230.399982115677 253.440001569732)" fill="#000000" fill-rule="evenodd" stroke="#ffffff" stroke-width="23.04" stroke-linecap="round" stroke-linejoin="round" d="M0 0L0 210.756C14.1599 210.741 36.8023 210.884 54.146 210.892L81.9746 276.455L132.097 256.275L102.626 186.755L144.719 144.9Z"/>
</svg>
